<svg width="26" height="26" fill="none" xmlns="http://www.w3.org/2000/svg"><path fill-rule="evenodd" clip-rule="evenodd" d="M25.5 18.73a6.778 6.778 0 01-6.77 6.77H7.27A6.779 6.779 0 01.5 18.73V7.27A6.778 6.778 0 017.27.5h11.46a6.778 6.778 0 016.77 6.77v11.46zM13 6.75A6.257 6.257 0 006.75 13 6.257 6.257 0 0013 19.25 6.257 6.257 0 0019.25 13 6.257 6.257 0 0013 6.75zM8.833 13A4.171 4.171 0 0013 17.167 4.171 4.171 0 0017.167 13 4.171 4.171 0 0013 8.833 4.171 4.171 0 008.833 13zm9.375-6.64a1.433 1.433 0 112.866 0 1.433 1.433 0 01-2.866 0z" fill="#22C3CA"/></svg>