<svg width="16" height="18" fill="none" xmlns="http://www.w3.org/2000/svg"><path fill-rule="evenodd" clip-rule="evenodd" d="M1.359 17.266a.616.616 0 01-.251-.055c-.002 0-.004-.003-.006-.004a.641.641 0 01-.198-.142l-.002-.004 4.97-4.45a.382.382 0 00.111-.081c.01-.012.014-.027.023-.04L8 10.705l7.097 6.357-.004.006a.614.614 0 01-.147.107c-.02.012-.036.03-.058.04a.623.623 0 01-.248.052H1.359zM.73 8.318l4.418 3.956L.731 16.23V8.318zM8.031.85l7.238 6.233v.25L10.3 11.781 8.244 9.94a.366.366 0 00-.487 0L5.7 11.782.73 7.334v-.25L8.031.85zm2.82 11.424l4.418-3.957v7.913l-4.418-3.956zM16 6.914a.368.368 0 00-.127-.278L8.27.09a.364.364 0 00-.475-.001L.129 6.635a.368.368 0 00-.129.28v9.72c0 .17.035.332.091.482l.001.002.001.002a1.342 1.342 0 00.218.373c.16.195.37.345.613.428l.065.02c.118.034.24.058.37.058H14.64c.129 0 .251-.024.37-.058l.067-.02c.242-.084.451-.233.61-.427a1.371 1.371 0 00.22-.377v-.001a1.35 1.35 0 00.092-.482v-9.72z" fill="#35424B"/></svg>