<svg width="12" height="18" fill="none" xmlns="http://www.w3.org/2000/svg"><g fill-rule="evenodd" clip-rule="evenodd" fill="#35424B"><path d="M.8 17.217h10.4V.783H.8v16.434zM11.6 18H.4a.395.395 0 01-.4-.39V.39C0 .176.178 0 .4 0h11.2c.222 0 .4.175.4.39v17.22c0 .215-.178.39-.4.39z"/><path d="M2.4 12.52h7.2V3.393H2.4v9.129zm7.6.784H2a.395.395 0 01-.4-.391V3c0-.217.18-.392.4-.392h8c.221 0 .4.175.4.392v9.912c0 .216-.179.39-.4.39zm-3.05 1.745a.94.94 0 01-.95.93.94.94 0 01-.95-.93.94.94 0 01.95-.93.94.94 0 01.95.93z"/></g></svg>