<svg width="18" height="18" fill="none" xmlns="http://www.w3.org/2000/svg"><path fill-rule="evenodd" clip-rule="evenodd" d="M1.653 4.33c-.032 2.917 1.307 5.943 3.687 8.324l.053.053c2.341 2.34 5.34 3.685 8.225 3.685l.096-.002a7.5 7.5 0 00.596-.531 7.603 7.603 0 001.718-2.643c.046-.118-.065-.49-.155-.579-1.147-.513-2.08-.814-3.656-1.165-.228-.004-.44.058-.494.098l-.765 1.22c-.342.555-1.28.619-1.961.12a18.565 18.565 0 01-2.08-1.773 18.82 18.82 0 01-1.784-2.09c-.285-.392-.408-.87-.328-1.278a1.01 1.01 0 01.452-.684l1.256-.797c.024-.05.08-.355.063-.451C6.23 4.532 5.75 3.156 5.37 2.102c-.026.006-.267-.097-.462-.097-.055 0-.078.01-.08.01a7.622 7.622 0 00-2.645 1.722 7.66 7.66 0 00-.53.594zm11.965 12.773c-3.072 0-6.255-1.42-8.73-3.896-2.6-2.6-4.02-5.866-3.944-9.01l.003-.119.073-.092c.209-.268.43-.52.66-.751a8.333 8.333 0 012.892-1.883.931.931 0 01.337-.058c.378 0 .999.202 1.13.566.386 1.067.873 2.464 1.225 3.798.076.284-.03 1.017-.37 1.231l-1.26.799c-.084.052-.117.147-.132.217-.041.215.037.492.206.723.494.677 1.07 1.352 1.712 2.006.648.637 1.322 1.21 1.996 1.701.345.252.817.277.94.077l.8-1.263c.247-.386 1.01-.39 1.018-.39.075 0 .14.006.198.018 1.63.365 2.598.677 3.837 1.24.385.173.66 1.004.481 1.456a8.295 8.295 0 01-1.878 2.89 8.72 8.72 0 01-.753.662l-.093.072-.348.006zm3.084-7.909a.356.356 0 01-.355-.356c0-3.986-3.245-7.229-7.232-7.229a.356.356 0 010-.711c4.38 0 7.943 3.562 7.943 7.94 0 .196-.16.356-.356.356z" fill="#22C3CA"/><path fill-rule="evenodd" clip-rule="evenodd" d="M14.473 9.194a.356.356 0 01-.356-.356 5.008 5.008 0 00-5.003-5.001.355.355 0 110-.711 5.719 5.719 0 015.714 5.712c0 .196-.16.356-.355.356z" fill="#22C3CA"/><path fill-rule="evenodd" clip-rule="evenodd" d="M12.125 9.194a.356.356 0 01-.355-.356 2.657 2.657 0 00-2.656-2.654.355.355 0 110-.71 3.37 3.37 0 013.367 3.364c0 .197-.16.356-.356.356z" fill="#22C3CA"/></svg>