<svg width="31" height="18" fill="none" xmlns="http://www.w3.org/2000/svg"><path fill-rule="evenodd" clip-rule="evenodd" d="M30.068 2.204c-.675 1.15-1.306 2.328-2.04 3.437-.802 1.215-1.726 2.345-2.55 3.548-.476.697-.389 1.16.207 1.765.654.664 1.33 1.307 1.986 1.97.944.95 1.852 1.928 2.397 3.18.44 1.207-.815 1.188-1.37 1.193-1.304.014-2.606.01-3.908 0-.454-.004-.977.023-1.342-.202-.715-.441-1.373-.993-1.999-1.56-.559-.506-1.005-1.14-1.567-1.642-.91-.812-1.593-.625-1.944.54-.187.624-.234 1.293-.314 1.944-.068.557-.39.872-.91.885-1.068.029-2.154.111-3.201-.04-2.658-.381-4.8-1.803-6.52-3.778A27.642 27.642 0 013.905 9.14C2.56 6.808 1.402 4.367.165 1.97c-.054-.151-.438-.832 1.176-.832 1.223 0 2.448.026 3.674 0 .768-.016 1.256.24 1.59.953.706 1.512 1.438 3.014 2.247 4.473.37.667.896 1.267 1.437 1.814.549.553 1.118.367 1.335-.383.391-1.345.394-2.718.268-4.103-.108-1.176-.333-2.233-1.851-2.36.318-.61.765-.885 1.323-.982 1.719-.3 3.444-.32 5.164-.02.8.138 1.08.499 1.149 1.312.023.291.025.584.018.875-.027 1.303-.082 2.605-.08 3.908 0 .497.06 1.016.213 1.486.195.593.66.677 1.135.265.263-.228.513-.479.728-.75 1.362-1.72 2.378-3.639 3.19-5.668.23-.578.583-.826 1.232-.826h4.724c2.097 0 1.334.791 1.231 1.072z" fill="#22C3CA"/></svg>